<svg width="82" height="53" viewBox="0 0 82 53" fill="none" xmlns="http://www.w3.org/2000/svg">
<path d="M61.1436 17.8998C60.3948 16.0848 59.2651 14.4583 57.7506 13.0168C56.3651 11.7227 54.8058 10.7647 53.0729 10.1448C51.34 9.52482 49.4335 9.21484 47.3551 9.21484C45.2936 9.21484 43.3646 9.55283 41.5682 10.2269C39.7719 10.9011 38.1977 11.8963 36.8495 13.2091C35.3537 14.6507 34.2501 16.251 33.5387 18.01C32.8272 19.7709 32.4724 21.726 32.4724 23.8791C32.4724 26.0676 32.887 28.1385 33.7179 30.0899C34.547 32.0412 35.7291 33.7013 37.2603 35.0682C38.5917 36.254 40.1229 37.1428 41.8558 37.7348C43.5887 38.3267 45.4299 38.6236 47.3813 38.6236C49.3868 38.6236 51.2392 38.3267 52.9348 37.7348C54.6303 37.1428 56.1447 36.2446 57.4761 35.0402C59.0634 33.6005 60.2566 31.918 61.0596 29.9928C61.8625 28.0694 62.264 26.0489 62.264 23.9332C62.2659 21.7242 61.8905 19.7149 61.1436 17.8998ZM56.2344 27.849C55.7152 29.0946 54.9422 30.1851 53.9132 31.1169C53.0505 31.8956 52.072 32.4782 50.9741 32.861C49.8761 33.2438 48.6772 33.4361 47.3794 33.4361C46.1152 33.4361 44.9239 33.2438 43.8016 32.861C42.6793 32.4782 41.6878 31.9012 40.8269 31.1337C39.8353 30.2486 39.0697 29.173 38.5338 27.9107C37.996 26.6465 37.7271 25.3076 37.7271 23.8903C37.7271 22.4972 37.9568 21.2312 38.418 20.0902C38.8793 18.9512 39.5926 17.9148 40.5617 16.9811C41.4357 16.1315 42.4534 15.4872 43.6167 15.0503C44.7801 14.6133 46.0275 14.3948 47.3626 14.3948C48.709 14.3948 49.9433 14.5965 51.0637 14.9961C52.186 15.3976 53.1943 16.0176 54.0925 16.856C55.0729 17.7897 55.8049 18.8429 56.2885 20.0174C56.7722 21.192 57.0149 22.4935 57.0149 23.922C57.013 25.2964 56.7535 26.6035 56.2344 27.849Z" fill="#1385B7"/>
<path d="M80.8235 24.9517C80.0653 23.8257 78.9524 22.7949 77.5183 21.8893C76.8666 21.4803 75.8601 20.9593 74.4428 20.2983C73.0889 19.6653 72.0096 19.1144 71.2291 18.6569C70.6147 18.304 70.0732 17.8689 69.6194 17.3591C69.2254 16.9184 69.035 16.4067 69.035 15.7943C69.035 15.3554 69.1843 14.883 69.4775 14.3882C69.7688 13.897 70.2805 13.462 70.9994 13.0922C71.5017 12.8308 72.1329 12.6254 72.8723 12.4835C73.6342 12.3359 74.4484 12.2613 75.2943 12.2613C77.2587 12.2613 78.7582 11.7421 79.7516 10.7188C80.9486 9.48451 80.9262 7.97197 80.9243 7.90848L80.9075 7.24557H80.2483C80.1979 7.24557 79.9738 7.23997 78.9711 7.18769C78.2036 7.14847 77.212 7.12793 76.0244 7.12793C74.6967 7.12793 73.3056 7.23437 71.892 7.44164C70.4317 7.65639 69.0779 8.10081 67.8735 8.75625C66.4618 9.50692 65.3171 10.5153 64.4712 11.7515C63.6103 13.0119 63.1734 14.4516 63.1734 16.0277C63.1734 17.5962 63.5562 18.9986 64.3106 20.1956C65.05 21.372 66.1275 22.399 67.5149 23.2543C68.4449 23.8126 69.6101 24.4008 70.977 25.004C72.2823 25.581 73.3168 26.1263 74.0656 26.6342C74.721 27.0618 75.2383 27.5025 75.5987 27.945C75.9068 28.3204 76.0562 28.8152 76.0562 29.4595C76.0562 30.1933 75.8713 30.7965 75.4941 31.3044C75.1019 31.831 74.4689 32.2904 73.6081 32.6713C72.9788 32.9533 72.1553 33.1512 71.1637 33.2595C71.0591 33.2707 70.7548 33.2894 69.8883 33.2894C69.1395 33.2894 68.133 33.2763 66.8931 33.2483C66.8688 33.2483 66.8446 33.2483 66.8203 33.2464C65.8885 33.2427 64.9697 33.5433 64.2359 34.1203C63.1211 34.998 62.5329 36.2977 62.5945 37.6795L62.6206 38.2434L63.1752 38.3219C63.2313 38.3293 63.4049 38.3536 64.9436 38.4862C65.9762 38.5758 66.9902 38.6206 67.9575 38.6206C69.9611 38.6206 71.821 38.4227 73.483 38.0324C75.1692 37.6366 76.6537 37.0427 77.8936 36.2659C79.1037 35.5115 80.099 34.5125 80.8496 33.2968C81.6134 32.0607 81.9999 30.6415 81.9999 29.0748C82.0036 27.5025 81.6059 26.1151 80.8235 24.9517Z" fill="#1385B7"/>
<path d="M5.90977 32.1966C6.86959 31.9464 6.64924 31.3843 6.64924 30.8503V16.4531V8.48326C6.64924 7.7662 6.02928 7.18359 5.26554 7.18359H1.58501C0.819394 7.18359 0.199436 7.76807 0.201304 8.48513L0.119141 37.4476C1.77174 33.543 5.58486 32.2825 5.90977 32.1966Z" fill="#1385B7"/>
<path d="M10.1079 13.2882C10.2648 13.2882 15.568 13.2116 16.9723 13.3274C20.7555 13.7887 22.6658 16.4907 23.3642 17.7754C24.0644 19.0602 24.4136 20.5148 24.4136 22.1413C24.4136 24.2943 24.0066 26.0459 23.1924 27.396C22.3782 28.7461 21.1869 29.8609 19.6202 30.7404C18.722 31.2464 17.5474 31.646 16.0946 31.9429C13.4131 32.6021 8.31527 32.2156 5.7981 33.138C1.69741 34.6375 0.0690917 38.7905 0.0690917 41.1938C0.0690917 43.1358 0.0541529 43.076 0.0448162 44.8874C0.0205408 48.6071 0.00560203 51.2494 0 52.8142C6.23132 52.8142 8.43478 50.523 7.76628 38.8783C7.76628 38.7195 7.88952 38.5907 8.04078 38.5944C9.28256 38.6187 14.3935 38.6859 16.5596 38.234C19.0357 37.7186 21.2541 36.8989 23.2185 35.7803C25.704 34.3537 27.6833 32.4751 29.1567 30.1466C30.63 27.818 31.3657 24.9535 31.3657 21.5475C31.3657 18.6475 30.6337 16.0407 29.1716 13.7233C27.7095 11.4059 25.6629 9.4975 22.9048 8.27066C20.6659 7.27536 13.2058 7.12598 8.9483 7.12598C7.26209 7.12598 7.29571 8.19036 7.29571 8.19596C7.29571 8.19596 7.29571 11.8485 7.29571 12.3975C7.29571 12.9465 7.50298 13.2863 8.84373 13.2863H10.1079V13.2882Z" fill="#1385B7"/>
<path d="M3.39657 5.72527C4.97755 5.72527 6.2592 4.44363 6.2592 2.86264C6.2592 1.28165 4.97755 0 3.39657 0C1.81558 0 0.533936 1.28165 0.533936 2.86264C0.533936 4.44363 1.81558 5.72527 3.39657 5.72527Z" fill="#1385B7"/>
</svg>
