<svg id="Layer_1" data-name="Layer 1" xmlns="http://www.w3.org/2000/svg" viewBox="0 0 595.28 278.9"><defs><style>.cls-1{fill:#95b23d;}.cls-2{fill:#5b4a5b;}.cls-3{fill:#231f20;}</style></defs><title>smartwarelogo</title><path class="cls-1" d="M151,159.58c-13.75,0-27.51.08-41.26.16-22.21.12-66-1.57-70.22-1.75-4.37-10.91-4-21.91-1.44-33.12,5.15-22.52,20-38,42.7-46.13,28.14-10.06,55.72-7.91,80.71,8.81a65.76,65.76,0,0,1,25.78,33.28c.14.4.23.82.39,1.38-44,3.09-134.67,9.59-136,9.86,3.6-.57,49.37-.81,68.64-1.14,16.59-.29,66.3,0,68.95,0,2.18,18.19-.15,35.45-12.88,50.39-9.38,11-22,17.67-36.38,21.62-20.35,4.84-43.51,6-70.36-7.71-8.64-5.37-16.1-11.44-22.31-20.25-.76-1.08-1.76-2.9-2.8-4.35,40.48-3.53,122.93-10.73,123.5-11C162.43,159.45,156.72,159.27,151,159.58Z"/><path class="cls-1" d="M259.38,145.79a22.25,22.25,0,0,1-1.56,4.19,6.87,6.87,0,0,1-2.11,2.48,7.58,7.58,0,0,1-3.21,1.2,30.73,30.73,0,0,1-4.81.31H225.36l1.84-7h21.32a3.94,3.94,0,0,0,2.42-.7,2.14,2.14,0,0,0,1-1.58c0-1.11-.72-1.67-2.33-1.67H237.4q-3.83,0-5.72-1.55a4.7,4.7,0,0,1-1.76-4.15,6.06,6.06,0,0,1,.06-.64c0-.2.08-.41.14-.64l.75-2.88a23.6,23.6,0,0,1,1.6-4.26,6.75,6.75,0,0,1,2.14-2.51,8,8,0,0,1,3.22-1.18,31.43,31.43,0,0,1,4.74-.3H264.9l-1.84,7H242.2a4.05,4.05,0,0,0-2.55.77,2.29,2.29,0,0,0-1.06,1.71c-.06,1.11.78,1.67,2.52,1.67H254q6.43,0,6.12,6a12.26,12.26,0,0,1-.32,2.21Z"/><path class="cls-1" d="M310.65,154h-8.18l4.76-18a12.54,12.54,0,0,0,.38-2.22q.06-1.14-.69-1.47a9.17,9.17,0,0,0-3.1-.34H300.6a17.38,17.38,0,0,0-2.45.14,3.07,3.07,0,0,0-1.47.57,3,3,0,0,0-.91,1.24,15.9,15.9,0,0,0-.68,2.08l-4.76,18h-8.25l5.29-20.19c0-.76-.2-1.25-.7-1.47a9.17,9.17,0,0,0-3.1-.34h-3.22a17.38,17.38,0,0,0-2.45.14,3.07,3.07,0,0,0-1.47.57,3,3,0,0,0-.91,1.24,15.9,15.9,0,0,0-.68,2.08l-4.76,18h-8.25l7.69-29h8.25l-.93,3.62A7.43,7.43,0,0,1,283.2,125h5.3a17,17,0,0,1,6.09.74,3.12,3.12,0,0,1,1.91,2.68,5.43,5.43,0,0,1,2.74-2.48,9.7,9.7,0,0,1,4.21-.94h5.29q4.63,0,6.43.9t1.65,3.66a17.66,17.66,0,0,1-.73,3.62Z"/><path class="cls-1" d="M347,154H325.67a30.39,30.39,0,0,1-3.92-.21,7.24,7.24,0,0,1-2.51-.7,2.84,2.84,0,0,1-1.33-1.37,5,5,0,0,1-.32-2.28,16.55,16.55,0,0,1,.66-3.62l.42-1.61a23.33,23.33,0,0,1,1.56-4.23,6.37,6.37,0,0,1,2.14-2.48,8.08,8.08,0,0,1,3.25-1.17,32.07,32.07,0,0,1,4.81-.3H340l-1.84,7h-8.92a2.72,2.72,0,0,0-2,.77,2.52,2.52,0,0,0-.82,1.71c-.06,1,.52,1.54,1.73,1.54h12.4l2.92-11a14.49,14.49,0,0,0,.46-2.22,1.35,1.35,0,0,0-.7-1.47,9.13,9.13,0,0,0-3.1-.34h-16.9l1.84-7h20a32.5,32.5,0,0,1,3.91.2,7.46,7.46,0,0,1,2.51.7,3,3,0,0,1,1.34,1.38,5,5,0,0,1,.31,2.28,16.55,16.55,0,0,1-.66,3.62Z"/><path class="cls-1" d="M379.92,132h-9.65a17.54,17.54,0,0,0-2.46.14,2.75,2.75,0,0,0-2.37,1.81,14.52,14.52,0,0,0-.68,2.08L360,154h-8.25l7.68-29h8.25l-.93,3.62a7.45,7.45,0,0,1,6.36-3.62h8.65Z"/><path class="cls-1" d="M394.8,154h-6.64c-3.09,0-5.22-.31-6.39-.91s-1.72-1.82-1.62-3.65a16.55,16.55,0,0,1,.66-3.62l8-30.38h8.24L394.5,125h8l-1.91,7h-7.84l-2.92,11a12.86,12.86,0,0,0-.45,2.21,1.37,1.37,0,0,0,.69,1.48,9.22,9.22,0,0,0,3.1.33h3.49Z"/><path class="cls-2" d="M462.63,124.93l-18.15,29H432.55l-.66-16.9L421.28,154H410.35l-2.84-29H416l1.67,23.14,14.76-23.14h6.17l1.27,23.14,14.35-23.14Z"/><path class="cls-2" d="M490.34,154H469a30.22,30.22,0,0,1-3.91-.21,7.24,7.24,0,0,1-2.51-.7,2.87,2.87,0,0,1-1.34-1.37,5,5,0,0,1-.31-2.28,16.55,16.55,0,0,1,.66-3.62l.42-1.61a23.33,23.33,0,0,1,1.56-4.23,6.29,6.29,0,0,1,2.14-2.48A8.08,8.08,0,0,1,469,136.3a31.93,31.93,0,0,1,4.8-.3h9.59l-1.84,7h-8.91a2.72,2.72,0,0,0-2,.77,2.57,2.57,0,0,0-.83,1.71c-.05,1,.53,1.54,1.73,1.54h12.41l2.92-11a15.35,15.35,0,0,0,.45-2.22q.06-1.14-.69-1.47a9.22,9.22,0,0,0-3.1-.34h-16.9l1.84-7h20a32.27,32.27,0,0,1,3.91.2,7.32,7.32,0,0,1,2.51.7,2.88,2.88,0,0,1,1.34,1.38,5,5,0,0,1,.32,2.28,17.84,17.84,0,0,1-.66,3.62Z"/><path class="cls-2" d="M523.28,132h-9.66a17.38,17.38,0,0,0-2.45.14,3.07,3.07,0,0,0-1.47.57,3,3,0,0,0-.91,1.24,15.9,15.9,0,0,0-.68,2.08l-4.76,18H495.1l7.69-29H511l-.93,3.62a7.45,7.45,0,0,1,6.36-3.62h8.65Z"/><path class="cls-2" d="M555.83,143H536.65l1.84-7h11.2c.33-1.25.5-1.95.51-2.08.07-1.34-1-2-3.11-2h-6.58a15.86,15.86,0,0,0-2.25.13,3.27,3.27,0,0,0-1.5.57,3.34,3.34,0,0,0-1,1.24A11,11,0,0,0,535,136l-1.84,7a12.4,12.4,0,0,0-.38,2.15,1.4,1.4,0,0,0,.69,1.5,8.24,8.24,0,0,0,3.1.37h16.9l-1.84,6.91h-20a34.09,34.09,0,0,1-4-.2,6.74,6.74,0,0,1-2.51-.74,3,3,0,0,1-1.27-1.37,5,5,0,0,1-.29-2.18,12.35,12.35,0,0,1,.22-1.65c.13-.6.3-1.28.52-2l3.27-12.54c.78-3,2.08-5.06,3.92-6.34s4.44-1.91,7.84-1.91h11.8c3.09,0,5.21.32,6.39.94s1.71,1.83,1.62,3.62a18.31,18.31,0,0,1-.66,3.69Z"/><path class="cls-3" d="M347.11,185.22c0,3.5-1.53,5.77-4.6,6.84a10.49,10.49,0,0,1-3.45.56,12.23,12.23,0,0,1-7.19-2.35l2.3-4.33a7.18,7.18,0,0,0,4.75,2.2,3.12,3.12,0,0,0,1.77-.49,1.75,1.75,0,0,0,.85-1.56,1.79,1.79,0,0,0-.94-1.53,8.81,8.81,0,0,0-2.35-.93c-1.33-.4-2.17-.67-2.51-.82a5.38,5.38,0,0,1-1.4-.82,5,5,0,0,1-1.65-4.11,6.71,6.71,0,0,1,7-7,14,14,0,0,1,6.55,1.68l-2.15,4.18a5.73,5.73,0,0,0-3.55-1.38,2.83,2.83,0,0,0-1.55.44,1.53,1.53,0,0,0-.77,1.34,1.7,1.7,0,0,0,1,1.41,17.29,17.29,0,0,0,2.73.94,7.81,7.81,0,0,1,4.06,2.36A5.18,5.18,0,0,1,347.11,185.22Z"/><path class="cls-3" d="M378.64,181.8a10.81,10.81,0,0,1-2.8,7.38,12.1,12.1,0,0,1-17.26,0,10.81,10.81,0,0,1-2.8-7.38,11.31,11.31,0,0,1,.75-4,11.79,11.79,0,0,1,19.31-3.45A10.81,10.81,0,0,1,378.64,181.8Zm-5.57,0a5.54,5.54,0,0,0-1.39-3.78,5.87,5.87,0,0,0-10,1.77,5.85,5.85,0,0,0-.37,2,5.65,5.65,0,0,0,1.4,3.74,5.55,5.55,0,0,0,4.46,2.05,5.66,5.66,0,0,0,4.48-2A5.6,5.6,0,0,0,373.07,181.8Z"/><path class="cls-3" d="M400.06,192.06H388.24V171.4h5.38v16.18h6.44Z"/><path class="cls-3" d="M427,183.31a14.55,14.55,0,0,1-.3,3.18,7.45,7.45,0,0,1-2.24,3.72,9.42,9.42,0,0,1-6.72,2.38,9,9,0,0,1-6.69-2.43,6.55,6.55,0,0,1-1.74-3.19,16.19,16.19,0,0,1-.33-3.66V171.4h5.37v11.17c0,.9,0,1.57,0,2a3.28,3.28,0,0,0,1.93,2.94,3.64,3.64,0,0,0,1.6.34,3.43,3.43,0,0,0,3-1.37,7.22,7.22,0,0,0,.74-3.92V171.4H427Z"/><path class="cls-3" d="M449.81,175.88h-4.45v16.18H440V175.88h-4.38V171.4h14.2Z"/><path class="cls-3" d="M463.74,192.06h-5.37V171.4h5.37Z"/><path class="cls-3" d="M496.22,181.8a10.81,10.81,0,0,1-2.8,7.38,12.1,12.1,0,0,1-17.26,0,10.81,10.81,0,0,1-2.8-7.38,11.31,11.31,0,0,1,.75-4,11.79,11.79,0,0,1,19.31-3.45A10.81,10.81,0,0,1,496.22,181.8Zm-5.57,0a5.54,5.54,0,0,0-1.39-3.78,5.87,5.87,0,0,0-10,1.77,5.84,5.84,0,0,0-.36,2,5.64,5.64,0,0,0,1.39,3.74,5.57,5.57,0,0,0,4.46,2.05,5.8,5.8,0,0,0,5.87-5.79Z"/><path class="cls-3" d="M526.45,192.06h-5.37L511.2,179.4v12.66h-5.37V171.4h5.37L521.08,184V171.4h5.37Z"/><path class="cls-3" d="M551.29,185.22c0,3.5-1.53,5.77-4.6,6.84a10.4,10.4,0,0,1-3.45.56,12.21,12.21,0,0,1-7.18-2.35l2.3-4.33a7.16,7.16,0,0,0,4.74,2.2,3.18,3.18,0,0,0,1.78-.49,1.78,1.78,0,0,0,.85-1.56,1.81,1.81,0,0,0-.94-1.53,9,9,0,0,0-2.35-.93c-1.34-.4-2.18-.67-2.52-.82a5.32,5.32,0,0,1-1.39-.82,5,5,0,0,1-1.66-4.11,6.71,6.71,0,0,1,7-7,14,14,0,0,1,6.55,1.68l-2.15,4.18a5.71,5.71,0,0,0-3.55-1.38,2.8,2.8,0,0,0-1.54.44,1.52,1.52,0,0,0-.78,1.34,1.69,1.69,0,0,0,1,1.41,16.5,16.5,0,0,0,2.73.94,7.86,7.86,0,0,1,4.06,2.36A5.18,5.18,0,0,1,551.29,185.22Z"/></svg>